<?xml version="1.0" encoding="UTF-8" standalone="no"?>
<svg version="1.1" id="logo" xmlns="http://www.w3.org/2000/svg" xmlns:xlink="http://www.w3.org/1999/xlink" x="0px" y="0px"
	viewBox="0 0 300 80" enable-background="new 0 0 300 80" xml:space="preserve" aria-labelledby="svg-title">
  <title id="svg-title">Pine Orchard Antique Prints</title>
  <g>
  	<path d="M2.3,34.5c-0.1,0-0.2-0.2-0.2-0.5v-0.3c0-0.1,0.1-0.2,0.2-0.2s0.4,0,0.7-0.1s0.5-0.2,0.7-0.2c1.6-0.4,2.4-1.3,2.4-2.7V5.8
  		c0-1.4-0.3-2.4-0.8-2.8S3.9,2.4,2.5,2.4H1.4c-0.3,0-0.5-0.2-0.5-0.6c0-0.2,0.1-0.4,0.3-0.4h0.2l13.1-0.4h2.4c2.8,0.2,5.1,1.2,7,3
  		s2.8,4,2.8,6.6s-0.9,4.9-2.7,6.9c-0.8,0.9-1.7,1.7-2.7,2.2s-2,0.9-3,0.9l-7-0.3h-0.2c-0.2,0-0.4,0.1-0.4,0.3v9.6
  		c0,0.9,0.2,1.5,0.7,1.9s1.5,0.7,3,1c0.2,0,0.5,0.1,1,0.2s0.8,0.1,0.9,0.1s0.2,0.1,0.2,0.2v0.6c0,0.1-0.1,0.2-0.2,0.2H2.3z
  		 M12.6,2.3c-0.2,0-0.4,0-0.6,0s-0.5,0-0.8,0s-0.5,0.1-0.5,0.4v15.1l0,0.7c0,0.3,0.2,0.5,0.4,0.5l2.4,0.1c2.5,0,4.5-0.8,6.1-2.5
  		s2.3-3.8,2.3-6.4s-0.7-4.5-2.2-5.9s-3.5-2.1-6-2.1c-0.2,0-0.4,0-0.6,0S12.8,2.3,12.6,2.3z"/>
  	<path d="M37.7,12.4c0.1,0,0.1,0,0.1,0.1v0.9c0,0.1-0.2,0.1-0.7,0.1s-0.9,0.1-1.3,0.4s-0.6,0.9-0.6,1.8v15.8c0,0.7,0.2,1.2,0.6,1.5
  		s1,0.4,1.8,0.4c0.1,0,0.1,0,0.1,0.1v0.9c0,0.1,0,0.1-0.1,0.1H29c-0.1,0-0.1,0-0.1-0.1v-0.9c0-0.1,0.2-0.1,0.7-0.1s0.9-0.1,1.3-0.4
  		s0.6-0.9,0.6-1.8V15.4c0-0.7-0.2-1.2-0.6-1.5s-0.8-0.4-1.3-0.4s-0.6,0-0.6-0.1v-0.9c0-0.1,0-0.1,0.1-0.1H37.7z"/>
  	<path d="M49,33.5v0.9c0,0.1,0,0.1-0.1,0.1h-8.7c-0.1,0-0.1,0-0.1-0.1v-0.9c0-0.1,0.2-0.1,0.7-0.1s0.8,0,0.9-0.1
  		c0.5-0.3,0.9-0.7,1-1.2s0.2-1.2,0.2-1.9V14.8c-0.1-0.9-1-1.3-2.7-1.3c-0.1,0-0.1,0-0.1-0.1v-0.9c0-0.1,0-0.1,0.1-0.1h7.2l14.9,16.5
  		c0.1,0.1,0.2,0.1,0.2,0.1s0.1,0,0.1-0.1V18.6c0-2.2-0.1-3.6-0.3-4s-0.5-0.7-0.8-0.9s-0.8-0.2-1.5-0.2h-0.8c-0.1,0-0.1,0-0.1-0.1
  		v-0.9c0-0.1,0-0.1,0.1-0.1h8.6c0.1,0,0.1,0,0.1,0.1v0.9c0,0.1-0.2,0.1-0.5,0.1S66.8,13.7,66,14S65,14.8,65,15.3v18.8
  		c0,0.5-0.4,0.7-1.2,0.7s-1.3-0.2-1.7-0.6L45.9,16.2c-0.1-0.1-0.2-0.1-0.3-0.1c0,0-0.1,0-0.1,0.1v15.2c0,0.8,0.5,1.3,1.5,1.7
  		c0.6,0.2,1.1,0.3,1.5,0.3S49,33.4,49,33.5z"/>
  	<path d="M84.7,26.2c0-1.5-0.7-2.3-2.2-2.3h-5.4C77,24,77,24,77,24.1v7.3c0,0.8,0.4,1.2,1.1,1.3c0.2,0,0.4,0,0.7,0H84
  		c1.1,0,1.9-0.4,2.4-1.1s0.8-1.6,0.9-2.4c0.1-0.3,0.3-0.4,0.6-0.4c0,0,0.1,0,0.3,0.1s0.2,0.1,0.2,0.2l-0.5,5.3
  		c0,0.1-0.1,0.2-0.2,0.2H68.9c-0.1,0-0.1,0-0.1-0.1v-0.9c0-0.1,0-0.1,0.1-0.1h0.4c0.4,0,0.9,0,1.3,0c1.7,0,2.6-0.7,2.6-2.1V15.7
  		c0-1-0.6-1.7-1.9-2c-0.3-0.1-0.7-0.1-1.1-0.2h-0.3c-0.1,0-0.1,0-0.1-0.1v-0.9c0-0.1,0-0.1,0.1-0.1h16.2c0.4,0,0.6,0.2,0.6,0.6
  		l0.3,4.5c0,0.1-0.2,0.2-0.5,0.2c-0.3,0-0.5-0.1-0.6-0.2s-0.1-0.4-0.2-0.7c-0.1-1.6-0.8-2.5-1.9-2.6h-6.6c-0.1,0-0.2,0.1-0.2,0.2
  		v7.8c0,0.1,0.1,0.2,0.2,0.2h5.4c1.4,0,2.1-0.8,2.1-2.3c0-0.1,0-0.1,0.1-0.1h0.9c0.1,0,0.1,0,0.1,0.1v6.7c0,0.1,0,0.1-0.1,0.1h-0.9
  		C84.7,26.7,84.7,26.6,84.7,26.2z"/>
  	<path d="M128.8,34.4c-1.6,0.5-3,0.7-4.3,0.7c-2.6,0-5-0.4-7.3-1.2c-3.2-1.2-5.8-2.9-7.7-5.1c-2.5-2.9-3.7-6.6-3.7-11
  		c0-3.2,0.8-6.1,2.5-8.8s3.9-4.7,6.8-6.2s6-2.3,9.4-2.3s6.3,0.7,9,2.2s4.8,3.5,6.4,6.1s2.4,5.4,2.4,8.4s-0.8,5.9-2.4,8.6
  		s-3.7,4.9-6.5,6.6C131.9,33.3,130.5,34,128.8,34.4z M110.8,17c0,2.6,0.6,5.2,1.7,7.7s2.8,4.6,4.9,6.2s4.6,2.4,7.4,2.4
  		c4,0,7.1-1.5,9.4-4.6c2-2.8,3-6.3,3-10.6s-1.2-8-3.7-11.1c-1.2-1.5-2.7-2.7-4.4-3.6s-3.5-1.4-5.3-1.4s-3.2,0.2-4.4,0.6
  		s-2.2,0.9-3.1,1.6s-1.7,1.5-2.4,2.4s-1.3,2-1.8,3C111.2,12,110.8,14.4,110.8,17z"/>
  	<path d="M155.1,33.9c0.1,0,0.1,0,0.1,0.1v0.4c0,0.1,0,0.1-0.1,0.1h-10.4c-0.1,0-0.1-0.1-0.1-0.3v-0.7c0-0.1,0-0.1,0.1-0.1l1.4-0.2
  		c1.1-0.2,1.6-0.8,1.6-1.8V15.3c0-0.9-0.4-1.5-1.1-1.9c-0.4-0.2-0.9-0.4-1.4-0.4h-0.6c-0.1,0-0.1,0-0.1-0.1V12
  		c0-0.1,0.1-0.1,0.4-0.1l1.4,0c0.6,0,1.2,0,1.9,0s1.6,0,2.7-0.1s2.2-0.1,3.2-0.1h2.3c2.1,0.1,3.7,0.8,4.8,2.2s1.7,2.9,1.7,4.7
  		s-0.8,3.3-2.2,4.3c-0.5,0.3-0.9,0.6-1.5,0.8l4.8,7.8c1,1.6,2.1,2.6,3.3,2.9c0.1,0,0.2,0.2,0.2,0.3s-0.2,0.3-0.6,0.3h-0.7
  		c-2.5,0-4.4-0.9-5.6-2.7c-0.3-0.4-0.6-0.8-1-1.3l-3.7-5.8c0,0-0.1,0-0.1,0l-4.1-0.2h-0.1c-0.2,0-0.2,0.1-0.2,0.2v6.8
  		c0,0.6,0.2,1,0.5,1.3s0.9,0.5,1.7,0.6L155.1,33.9z M151.9,13c-0.2,0-0.4,0.1-0.4,0.3v9.5l0,0.5c0,0.2,0.1,0.3,0.2,0.4
  		c0.5,0.1,1.1,0.1,2,0.1c3.5,0,5.3-1.8,5.3-5.4c0-1.7-0.5-3-1.5-3.9s-2.3-1.4-3.9-1.4C153.5,12.9,152.9,13,151.9,13z"/>
  	<path d="M188.1,33.9c0,0.1-0.1,0.1-0.4,0s-0.5-0.1-1-0.1s-0.9,0.1-1.4,0.2s-1.3,0.3-2.3,0.5s-2.2,0.4-3.4,0.4s-2.6-0.3-4.2-0.8
  		s-2.9-1.3-4-2.3c-2.5-2.1-3.7-4.9-3.7-8.3s1.2-6.3,3.6-8.5s5.5-3.3,9.2-3.3c1.2,0,3.1,0.3,5.6,0.8c0.3,0.1,0.6,0.2,1,0.4
  		s0.6,0.2,0.7,0.2l0.5-0.1h1c0.1,0,0.2,0.1,0.2,0.3v4.9c0,0.1-0.2,0.2-0.5,0.2s-0.6-0.1-0.6-0.2s-0.2-0.5-0.5-1
  		c-0.6-1.3-1.5-2.2-2.7-2.9s-2.6-1-4.1-1c-3,0-5.2,0.8-6.6,2.5s-2.2,4-2.2,7s0.8,5.5,2.4,7.4s3.9,2.9,6.7,2.9s5.1-0.9,6.8-2.6
  		c0.6-0.5,0.9-1,1.1-1.4s0.3-0.6,0.4-0.6h0.7c0.1,0,0.2,0.1,0.2,0.2s0,0.2,0,0.3s-0.1,0.3-0.3,0.6s-0.4,0.8-0.7,1.5
  		S188.7,32.7,188.1,33.9z"/>
  	<path d="M192.5,33.4c1.8,0,2.6-0.8,2.6-2.2V15.4c0-0.7-0.2-1.2-0.7-1.5s-0.9-0.4-1.3-0.4s-0.6-0.1-0.6-0.1v-0.8
  		c0-0.1,0-0.1,0.1-0.1h8.7c0.1,0,0.1,0,0.1,0.1v0.8c0,0,0,0.1-0.1,0.1c-1.6,0-2.4,0.7-2.4,2.2v6.5c0,0.2,0.1,0.2,0.2,0.2h12.4
  		c0.2,0,0.3-0.1,0.3-0.2v-6.8c0-1.2-1.2-1.8-3.5-1.9c-0.1,0-0.1,0-0.1-0.1v-0.8c0-0.1,0-0.1,0.1-0.1h9.8c0.1,0,0.1,0,0.1,0.1v0.8
  		c0,0,0,0.1-0.1,0.1c-1.7,0-2.5,0.7-2.5,2.2v16.1c0,1.4,1,2.2,2.9,2.2c0.1,0,0.1,0,0.1,0.1v0.4c0,0.1,0,0.1-0.1,0.1h-10.7
  		c-0.1,0-0.1,0-0.1-0.1V34c0-0.1,0.3-0.1,0.8-0.1s1.1-0.1,1.8-0.3c1-0.3,1.5-0.9,1.5-1.7v-7.5c0-0.2-0.1-0.2-0.3-0.2h-12.4
  		c-0.2,0-0.2,0.1-0.2,0.2v7.2c0,1.2,0.9,1.9,2.8,1.9c0.1,0,0.1,0,0.1,0.1v0.9c0,0.1,0,0.1-0.1,0.1h-9.5c-0.1,0-0.1,0-0.1-0.1v-0.9
  		C192.2,33.4,192.3,33.4,192.5,33.4z"/>
  	<path d="M228.6,33.4c0.1,0,0.1,0,0.1,0.1v0.9c0,0.1,0,0.1-0.1,0.1h-8.2c-0.1,0-0.1,0-0.1-0.1v-0.9c0-0.1,0.1-0.1,0.2-0.1
  		c1.6-0.1,2.6-0.9,3.1-2.3l6.2-18l-0.2-0.6c0-0.1,0-0.1,0.1-0.1h4.1c0,0,0,0,0.1,0s0.1,0,0.1,0.1l6.5,18.1c0.7,1.8,1.8,2.7,3.4,2.7
  		c0.1,0,0.1,0,0.1,0.1v0.9c0,0.1,0,0.1-0.1,0.1h-10.5c-0.1,0-0.1,0-0.1-0.1v-0.9c0-0.1,0-0.1,0.1-0.1h0.2c0.2,0,0.4,0,0.8,0
  		c1.6-0.1,2.4-0.6,2.4-1.5l0-0.2l-1.9-5.5c0,0-0.1-0.2-0.2-0.4s-0.3-0.3-0.6-0.3h-5.9c-0.3,0-0.6,0.2-0.8,0.5c0,0.1-0.1,0.1-0.1,0.1
  		l-1.9,5.6c0,0.6,0.4,1,1.2,1.3c0.5,0.2,1,0.3,1.6,0.3H228.6z M233.5,23.5c0.2,0,0.3-0.1,0.3-0.3c0,0,0-0.1-0.1-0.3l-2.5-7
  		c-0.1-0.3-0.2-0.4-0.2-0.4s-0.1,0.1-0.3,0.4l-2.3,6.9c0,0,0,0.1-0.1,0.2s0,0.1,0,0.1c0,0.2,0.1,0.2,0.3,0.2H233.5z"/>
  	<path d="M256.1,33.9c0.1,0,0.1,0,0.1,0.1v0.4c0,0.1,0,0.1-0.1,0.1h-10.4c-0.1,0-0.1-0.1-0.1-0.3v-0.7c0-0.1,0-0.1,0.1-0.1l1.4-0.2
  		c1.1-0.2,1.6-0.8,1.6-1.8V15.3c0-0.9-0.4-1.5-1.1-1.9c-0.4-0.2-0.9-0.4-1.4-0.4h-0.6c-0.1,0-0.1,0-0.1-0.1V12
  		c0-0.1,0.1-0.1,0.4-0.1l1.4,0c0.6,0,1.2,0,1.9,0s1.6,0,2.7-0.1s2.2-0.1,3.2-0.1h2.3c2.1,0.1,3.7,0.8,4.8,2.2s1.7,2.9,1.7,4.7
  		s-0.8,3.3-2.2,4.3c-0.5,0.3-0.9,0.6-1.5,0.8l4.8,7.8c1,1.6,2.1,2.6,3.3,2.9c0.1,0,0.2,0.2,0.2,0.3s-0.2,0.3-0.6,0.3h-0.7
  		c-2.5,0-4.4-0.9-5.6-2.7c-0.3-0.4-0.6-0.8-1-1.3l-3.7-5.8c0,0-0.1,0-0.1,0l-4.1-0.2h-0.1c-0.2,0-0.2,0.1-0.2,0.2v6.8
  		c0,0.6,0.2,1,0.5,1.3s0.9,0.5,1.7,0.6L256.1,33.9z M252.9,13c-0.2,0-0.4,0.1-0.4,0.3v9.5l0,0.5c0,0.2,0.1,0.3,0.2,0.4
  		c0.5,0.1,1.1,0.1,2,0.1c3.5,0,5.3-1.8,5.3-5.4c0-1.7-0.5-3-1.5-3.9s-2.3-1.4-3.9-1.4C254.5,12.9,254,13,252.9,13z"/>
  	<path d="M270.5,13.3c-0.1,0-0.1,0-0.1-0.1v-0.9c0-0.1,0-0.1,0.1-0.1l6.1-0.3c1.8-0.1,3.3-0.1,4.4-0.1c4.6,0,7.8,0.7,9.8,2.1
  		s3.4,3.3,4.2,5.7c0.4,1.2,0.6,2.5,0.6,3.9s-0.3,2.9-1,4.3s-1.6,2.6-2.8,3.6c-2.4,2.2-5.3,3.2-8.6,3.2h-12.7c-0.1,0-0.1,0-0.1-0.1
  		v-0.9c0-0.1,0-0.1,0.1-0.1h0.3c1.9,0,2.9-0.6,2.9-1.8V15c0-0.9-0.5-1.4-1.5-1.7c-0.2-0.1-0.5-0.1-0.7-0.1H270.5z M277.5,31.8
  		c0,0.8,0.7,1.1,2.2,1.2c0.4,0,1.2,0,2.3,0s2.3-0.2,3.6-0.6c4-1.2,6-4.3,6-9.2c0-3-0.8-5.4-2.5-7.2s-4-2.8-6.8-2.8h-4.3
  		c-0.3,0-0.4,0.1-0.4,0.4V31.8z"/>
  	<path d="M11.4,72.3c0,0.1-0.1,0.2-0.2,0.2h-11c-0.1,0-0.2-0.1-0.2-0.2v-0.5c0-0.1,0.1-0.2,0.3-0.2c2-0.1,3.3-1.1,4-3.1l8.8-25.4
  		c0,0,0-0.1,0-0.1l-0.2-0.7c0-0.1,0-0.1,0.1-0.1h4.3c0,0,0.1,0,0.1,0c0,0,0.1,0.1,0.1,0.1l9.1,25.5c0.2,0.4,0.4,0.7,0.5,1.1
  		c0.1,0.3,0.3,0.6,0.4,0.9c0.3,0.6,0.9,1,1.7,1.4c0.7,0.3,1.3,0.5,1.8,0.5c0.1,0,0.2,0.1,0.2,0.2v0.5c0,0.1-0.1,0.2-0.2,0.2H17.9
  		c-0.1,0-0.2-0.1-0.2-0.2v-0.5c0-0.1,0.3-0.2,0.8-0.2c0.5,0,1-0.1,1.3-0.1c2-0.2,3-0.9,3-2c0-0.1,0-0.2,0-0.3l-3.2-9.2
  		c0,0,0-0.1-0.1-0.2c-0.2-0.5-0.5-0.7-0.9-0.7h-7.6c-0.4,0-0.8,0.2-1,0.7c0,0.1-0.1,0.2-0.1,0.2l-3.2,9.4v0.2c0,0.4,0.2,0.7,0.6,1
  		c0.9,0.7,2,1,3.5,1h0.6c0.1,0,0.2,0.1,0.2,0.2V72.3z M17.8,56.7c0.3,0,0.4-0.1,0.4-0.3c0-0.1,0-0.2-0.1-0.4l-3.2-8.8
  		c-0.1-0.4-0.3-0.6-0.3-0.6c-0.1,0-0.2,0.2-0.3,0.6l-3,8.8c-0.1,0.1-0.1,0.3-0.1,0.5c0,0.2,0.1,0.2,0.3,0.2H17.8z"/>
  	<path d="M40.8,71.6v0.8c0,0.1,0,0.1-0.1,0.1h-7.9c-0.1,0-0.1,0-0.1-0.1v-0.8c0-0.1,0.2-0.1,0.6-0.1c0.4,0,0.7,0,0.8-0.1
  		c0.5-0.2,0.8-0.6,0.9-1.1c0.1-0.5,0.2-1.1,0.2-1.8V54.4c-0.1-0.8-0.9-1.2-2.5-1.2c-0.1,0-0.1,0-0.1-0.1v-0.8c0-0.1,0-0.1,0.1-0.1
  		h6.6L53,67.3c0.1,0.1,0.2,0.1,0.2,0.1c0,0,0.1,0,0.1-0.1v-9.5c0-2-0.1-3.3-0.3-3.7c-0.2-0.4-0.4-0.7-0.8-0.8
  		c-0.3-0.1-0.8-0.2-1.4-0.2h-0.8c-0.1,0-0.1,0-0.1-0.1v-0.8c0-0.1,0-0.1,0.1-0.1h7.9c0.1,0,0.1,0,0.1,0.1v0.8c0,0.1-0.1,0.1-0.4,0.1
  		s-0.7,0.2-1.4,0.5c-0.7,0.3-1,0.7-1,1.2v17.3c0,0.4-0.4,0.6-1.1,0.6c-0.7,0-1.2-0.2-1.5-0.5L37.9,55.7c-0.1-0.1-0.2-0.1-0.3-0.1
  		c0,0-0.1,0-0.1,0.1v13.9c0,0.7,0.5,1.2,1.4,1.5c0.6,0.2,1,0.3,1.4,0.3S40.8,71.5,40.8,71.6z"/>
  	<path d="M65.3,71.6c0-0.1,0-0.1,0.1-0.1h0.8c1.2-0.1,2.1-0.6,2.5-1.2c0.1-0.2,0.2-0.5,0.2-0.8V54c0-0.2,0-0.3-0.1-0.3l-0.3-0.1H63
  		c-1,0.2-1.6,1.2-2,3c0,0.1-0.1,0.2-0.1,0.3c0,0.1-0.1,0.2-0.2,0.2h-0.7c-0.1,0-0.1,0-0.1-0.1v-0.5l0.5-4.5c0-0.3,0.2-0.4,0.6-0.4
  		c0.1,0,0.3,0.1,0.5,0.3c0.2,0.2,0.5,0.3,1,0.3h16.2c0.4,0,0.7-0.1,1-0.3c0.2-0.2,0.4-0.3,0.5-0.3c0.3,0,0.5,0.1,0.6,0.4l0.5,4.7
  		v0.5c0,0,0,0.1-0.1,0.1h-0.7c-0.1,0-0.2-0.3-0.3-0.9c-0.1-0.6-0.3-1.1-0.6-1.7c-0.3-0.5-0.7-0.8-1.3-1h-5.5c-0.1,0-0.2,0.1-0.3,0.1
  		c-0.1,0-0.1,0.1-0.1,0.3v15.3c0,0.5,0.3,1,0.8,1.3c0.5,0.4,1.2,0.6,2,0.7H76c0.1,0,0.1,0,0.1,0.1v0.8c0,0.1,0,0.1-0.1,0.1H65.4
  		c-0.1,0-0.1,0-0.1-0.1V71.6z"/>
  	<path d="M91.4,52.2c0.1,0,0.1,0,0.1,0.1v0.8c0,0.1-0.2,0.1-0.6,0.1s-0.8,0.1-1.2,0.4c-0.4,0.3-0.5,0.8-0.5,1.7v14.5
  		c0,0.6,0.2,1.1,0.6,1.3c0.4,0.3,0.9,0.4,1.6,0.4c0.1,0,0.1,0,0.1,0.1v0.8c0,0.1,0,0.1-0.1,0.1h-7.9c-0.1,0-0.1,0-0.1-0.1v-0.8
  		c0-0.1,0.2-0.1,0.6-0.1c0.4,0,0.8-0.1,1.2-0.4c0.4-0.3,0.5-0.8,0.5-1.7V55c0-0.7-0.2-1.1-0.6-1.4c-0.4-0.3-0.8-0.4-1.1-0.4
  		c-0.4,0-0.6,0-0.6-0.1v-0.8c0-0.1,0-0.1,0.1-0.1H91.4z"/>
  	<path d="M103.3,72.8l-0.2,0c0,0-0.1,0-0.2,0c-2.7-0.3-5-1.5-6.8-3.4c-1.8-1.9-2.8-4.4-2.8-7.3s1.1-5.4,3.2-7.4c2.1-2,4.8-3,8-3
  		c3.2,0,5.8,1,7.9,3c2.1,2,3.1,4.5,3.1,7.6c0,3.7-1.9,6.8-5.6,9.2c-0.1,0-0.2,0.1-0.4,0.2c-0.2,0.1-0.4,0.2-0.7,0.4
  		c-0.2,0.1-0.5,0.2-0.7,0.4c-0.2,0.1-0.3,0.2-0.3,0.2l4.6,3.6c1.2,0.9,2.1,1.5,2.8,1.7c0.7,0.2,1,0.4,1,0.5c0,0.3-0.4,0.5-1.3,0.5
  		c-2,0-3.6-0.4-4.8-1.1c-2.2-1.3-3.7-2.5-4.7-3.4C104.7,73.3,103.9,72.8,103.3,72.8z M97.1,61.8c0,2.6,0.7,4.8,2.2,6.6
  		c1.4,1.8,3.4,2.7,6,2.7c3.3,0,5.4-1.6,6.3-4.8c0.3-1,0.5-2.2,0.5-3.5c0-2.8-0.6-5-1.9-6.7c-1.2-1.7-3.3-2.6-6-2.8
  		c-2.3,0-4.1,0.8-5.3,2.3S97.1,59.2,97.1,61.8z"/>
  	<path d="M141.7,53.2c-1.7,0-2.6,0.6-2.6,1.9v8.7c0,2.8-0.8,5-2.3,6.7s-3.6,2.5-6.2,2.5s-5-0.6-7.1-1.8c-1.4-0.8-2.5-1.9-3.1-3.2
  		c-0.3-0.7-0.5-1.4-0.5-2.2V55c0-0.8-0.5-1.4-1.5-1.6c-0.3-0.1-0.5-0.1-0.7-0.1s-0.3,0-0.3-0.1v-0.8c0-0.1,0-0.1,0.1-0.1h8.6
  		c0.1,0,0.1,0,0.1,0.1v0.8c0,0.1,0,0.1-0.1,0.1c-1.7,0-2.6,0.6-2.6,1.9v9.6c0,2,0.7,3.5,2,4.7c1.4,1.2,3,1.8,5,1.8
  		c2,0,3.6-0.5,4.8-1.6c1.3-1.1,1.9-2.6,1.9-4.6v-8.4c0-0.9-0.1-1.6-0.2-1.9c-0.4-0.9-1.4-1.4-2.8-1.4c-0.1,0-0.1,0-0.1-0.1v-0.8
  		c0-0.1,0-0.1,0.1-0.1h7.5c0.1,0,0.1,0,0.1,0.1v0.8C141.8,53.2,141.8,53.2,141.7,53.2z"/>
  	<path d="M157.2,64.9c0-1.4-0.7-2.1-2-2.1h-4.9c-0.1,0-0.2,0.1-0.2,0.2v6.7c0,0.7,0.3,1.1,1,1.2c0.2,0,0.4,0,0.6,0h4.8
  		c1,0,1.7-0.4,2.2-1.1c0.5-0.7,0.8-1.4,0.8-2.2c0.1-0.3,0.3-0.4,0.6-0.4c0,0,0.1,0,0.3,0.1c0.2,0.1,0.2,0.1,0.2,0.1l-0.5,4.8
  		c0,0.1-0.1,0.2-0.2,0.2h-17.2c-0.1,0-0.1,0-0.1-0.1v-0.9c0-0.1,0-0.1,0.1-0.1h0.3c0.4,0,0.8,0,1.2,0c1.6,0,2.3-0.7,2.3-1.9V55.2
  		c0-0.9-0.6-1.5-1.7-1.8c-0.3-0.1-0.6-0.1-1-0.2h-0.3c-0.1,0-0.1,0-0.1-0.1v-0.8c0-0.1,0-0.1,0.1-0.1h14.8c0.3,0,0.5,0.2,0.5,0.5
  		l0.2,4.2c0,0.1-0.2,0.2-0.5,0.2c-0.3,0-0.4-0.1-0.5-0.2c-0.1-0.1-0.1-0.3-0.2-0.6c-0.1-1.4-0.7-2.2-1.8-2.4h-6
  		c-0.1,0-0.2,0.1-0.2,0.2v7.1c0,0.1,0,0.2,0.2,0.2h5c1.3,0,2-0.7,2-2.1c0-0.1,0-0.1,0.1-0.1h0.8c0.1,0,0.1,0,0.1,0.1v6.2
  		c0,0.1,0,0.1-0.1,0.1h-0.8C157.2,65.4,157.2,65.2,157.2,64.9z"/>
  	<path d="M176.3,72.5c-0.1,0-0.2-0.1-0.2-0.4v-0.3c0-0.1,0.1-0.2,0.2-0.2c0.1,0,0.4,0,0.6-0.1s0.5-0.1,0.6-0.2
  		c1.5-0.3,2.2-1.2,2.2-2.5V46.2c0-1.3-0.2-2.2-0.7-2.5c-0.5-0.4-1.4-0.5-2.6-0.5h-1c-0.3,0-0.5-0.2-0.5-0.5c0-0.2,0.1-0.3,0.3-0.4
  		h0.2l12.1-0.3h2.2c2.6,0.2,4.7,1.1,6.4,2.8c1.7,1.7,2.6,3.7,2.6,6s-0.8,4.5-2.5,6.4c-0.7,0.8-1.6,1.5-2.5,2.1
  		c-0.9,0.5-1.8,0.8-2.7,0.8l-6.4-0.3h-0.2c-0.2,0-0.3,0.1-0.3,0.3v8.8c0,0.8,0.2,1.4,0.6,1.7c0.4,0.4,1.3,0.7,2.7,0.9
  		c0.2,0,0.5,0.1,0.9,0.1c0.4,0.1,0.7,0.1,0.8,0.1c0.1,0,0.2,0.1,0.2,0.2v0.5c0,0.1-0.1,0.2-0.2,0.2H176.3z M185.8,43
  		c-0.2,0-0.4,0-0.5,0c-0.2,0-0.4,0-0.7,0c-0.3,0-0.5,0.1-0.5,0.4v13.9l0,0.6c0,0.3,0.2,0.5,0.4,0.5l2.2,0.1c2.3,0,4.2-0.8,5.6-2.3
  		c1.4-1.5,2.1-3.5,2.1-5.8s-0.7-4.2-2.1-5.4c-1.4-1.3-3.2-1.9-5.5-1.9c-0.2,0-0.4,0-0.6,0C186.1,43,185.9,43,185.8,43z"/>
  	<path d="M210.2,71.9c0.1,0,0.1,0,0.1,0.1v0.3c0,0.1,0,0.1-0.1,0.1h-9.6c-0.1,0-0.1-0.1-0.1-0.3v-0.6c0-0.1,0-0.1,0.1-0.1l1.3-0.2
  		c1-0.2,1.5-0.8,1.5-1.7V54.9c0-0.8-0.3-1.4-1-1.8c-0.4-0.2-0.8-0.3-1.3-0.3h-0.5c-0.1,0-0.1,0-0.1-0.1v-0.8c0-0.1,0.1-0.1,0.4-0.1
  		l1.3,0c0.5,0,1.1,0,1.7,0c0.6,0,1.4,0,2.4-0.1c1,0,2-0.1,2.9-0.1h2.1c1.9,0.1,3.4,0.8,4.4,2s1.5,2.7,1.5,4.4s-0.7,3-2.1,3.9
  		c-0.4,0.3-0.9,0.5-1.4,0.8l4.4,7.1c0.9,1.5,1.9,2.4,3,2.6c0.1,0,0.2,0.1,0.2,0.3s-0.2,0.2-0.5,0.2h-0.6c-2.3,0-4-0.8-5.1-2.5
  		c-0.3-0.4-0.6-0.8-0.9-1.2l-3.4-5.3c0,0-0.1,0-0.1,0l-3.7-0.2h-0.1c-0.1,0-0.2,0.1-0.2,0.2V70c0,0.5,0.1,0.9,0.4,1.2
  		s0.8,0.4,1.5,0.5L210.2,71.9z M207.3,52.8c-0.2,0-0.3,0.1-0.3,0.2v8.7l0,0.4c0,0.2,0.1,0.3,0.2,0.3c0.4,0.1,1,0.1,1.8,0.1
  		c3.2,0,4.9-1.6,4.9-4.9c0-1.5-0.5-2.7-1.4-3.6s-2.1-1.3-3.6-1.3C208.8,52.7,208.2,52.7,207.3,52.8z"/>
  	<path d="M231.1,52.2c0.1,0,0.1,0,0.1,0.1v0.8c0,0.1-0.2,0.1-0.6,0.1s-0.8,0.1-1.2,0.4c-0.4,0.3-0.5,0.8-0.5,1.7v14.5
  		c0,0.6,0.2,1.1,0.6,1.3c0.4,0.3,0.9,0.4,1.6,0.4c0.1,0,0.1,0,0.1,0.1v0.8c0,0.1,0,0.1-0.1,0.1h-7.9c-0.1,0-0.1,0-0.1-0.1v-0.8
  		c0-0.1,0.2-0.1,0.6-0.1c0.4,0,0.8-0.1,1.2-0.4c0.4-0.3,0.5-0.8,0.5-1.7V55c0-0.7-0.2-1.1-0.6-1.4c-0.4-0.3-0.8-0.4-1.1-0.4
  		c-0.4,0-0.6,0-0.6-0.1v-0.8c0-0.1,0-0.1,0.1-0.1H231.1z"/>
  	<path d="M241.5,71.6v0.8c0,0.1,0,0.1-0.1,0.1h-7.9c-0.1,0-0.1,0-0.1-0.1v-0.8c0-0.1,0.2-0.1,0.6-0.1c0.4,0,0.7,0,0.8-0.1
  		c0.5-0.2,0.8-0.6,0.9-1.1c0.1-0.5,0.2-1.1,0.2-1.8V54.4c-0.1-0.8-0.9-1.2-2.5-1.2c-0.1,0-0.1,0-0.1-0.1v-0.8c0-0.1,0-0.1,0.1-0.1
  		h6.6l13.6,15.1c0.1,0.1,0.2,0.1,0.2,0.1c0,0,0.1,0,0.1-0.1v-9.5c0-2-0.1-3.3-0.3-3.7c-0.2-0.4-0.4-0.7-0.8-0.8
  		c-0.3-0.1-0.8-0.2-1.4-0.2h-0.8c-0.1,0-0.1,0-0.1-0.1v-0.8c0-0.1,0-0.1,0.1-0.1h7.9c0.1,0,0.1,0,0.1,0.1v0.8c0,0.1-0.1,0.1-0.4,0.1
  		s-0.7,0.2-1.4,0.5c-0.7,0.3-1,0.7-1,1.2v17.3c0,0.4-0.4,0.6-1.1,0.6c-0.7,0-1.2-0.2-1.5-0.5l-14.9-16.6c-0.1-0.1-0.2-0.1-0.3-0.1
  		c0,0-0.1,0-0.1,0.1v13.9c0,0.7,0.5,1.2,1.4,1.5c0.6,0.2,1,0.3,1.4,0.3S241.5,71.5,241.5,71.6z"/>
  	<path d="M265.9,71.6c0-0.1,0-0.1,0.1-0.1h0.8c1.2-0.1,2.1-0.6,2.5-1.2c0.1-0.2,0.2-0.5,0.2-0.8V54c0-0.2,0-0.3-0.1-0.3l-0.3-0.1
  		h-5.5c-1,0.2-1.6,1.2-2,3c0,0.1-0.1,0.2-0.1,0.3c0,0.1-0.1,0.2-0.2,0.2h-0.7c-0.1,0-0.1,0-0.1-0.1v-0.5l0.5-4.5
  		c0-0.3,0.2-0.4,0.6-0.4c0.1,0,0.3,0.1,0.5,0.3c0.2,0.2,0.5,0.3,1,0.3h16.2c0.4,0,0.7-0.1,1-0.3c0.2-0.2,0.4-0.3,0.5-0.3
  		c0.3,0,0.5,0.1,0.6,0.4l0.5,4.7v0.5c0,0,0,0.1-0.1,0.1h-0.7c-0.1,0-0.2-0.3-0.3-0.9c-0.1-0.6-0.3-1.1-0.6-1.7
  		c-0.3-0.5-0.7-0.8-1.3-1h-5.5c-0.1,0-0.2,0.1-0.3,0.1c-0.1,0-0.1,0.1-0.1,0.3v15.3c0,0.5,0.2,1,0.8,1.3c0.5,0.4,1.2,0.6,2,0.7h0.8
  		c0.1,0,0.1,0,0.1,0.1v0.8c0,0.1,0,0.1-0.1,0.1h-10.6c-0.1,0-0.1,0-0.1-0.1V71.6z"/>
  	<path d="M283.7,67.5c0-0.2,0.2-0.3,0.8-0.3c0.2,0,0.3,0.2,0.5,0.5c0.9,2.6,2.6,3.9,5.3,3.9c1.7,0,2.8-0.6,3.3-1.7
  		c0.2-0.4,0.3-0.9,0.3-1.7c0-0.7-0.2-1.4-0.7-2.1c-0.5-0.7-1-1.3-1.8-1.9c-0.7-0.6-1.5-1.1-2.3-1.6c-3.2-2-4.7-4-4.7-6.1
  		c0-1.5,0.6-2.7,1.8-3.6c1.2-0.9,2.5-1.3,3.9-1.3c0.7,0,1.4,0.1,2.1,0.3c0.7,0.2,1.4,0.4,2.1,0.6l1.1-0.2c0,0,0.1,0.1,0.2,0.2
  		c0.1,0.1,0.1,0.2,0.1,0.3l0.5,3.8c0,0.1,0,0.1-0.2,0.1c-0.1,0-0.2,0-0.3,0c-0.3,0-0.5,0-0.5-0.1s-0.1-0.1-0.1-0.2
  		c0-0.1-0.1-0.2-0.1-0.3c-0.7-1.5-1.9-2.5-3.5-3c-0.4-0.1-1-0.2-1.6-0.2c-0.6,0-1.2,0.2-1.8,0.6c-0.6,0.4-0.9,1-0.9,1.8
  		c0,0.8,0.2,1.5,0.7,2.2c0.7,1,2.1,2.2,4,3.4c3.2,2,4.8,4.3,4.8,6.7c0,1.6-0.7,2.9-2,3.9c-1.3,1-2.9,1.5-4.6,1.5
  		c-1.1,0-1.9-0.1-2.6-0.3c-0.6-0.2-1-0.4-1.3-0.5c-0.2-0.1-0.4-0.1-0.6-0.1c-0.2,0-0.5,0-0.9,0.1s-0.6,0-0.6-0.3L283.7,67.5z"/>
  </g>
</svg>
